<svg width="800" height="200" viewBox="0 0 800 200" fill="none" xmlns="http://www.w3.org/2000/svg">
  <defs>
    <!-- Teal gradient: bottom to top -->
    <linearGradient id="logoGradient" x1="80" y1="175" x2="80" y2="25" gradientUnits="userSpaceOnUse">
      <stop offset="0%" stop-color="#2A9EAE"/>
      <stop offset="100%" stop-color="#32B8C6"/>
    </linearGradient>
  </defs>

  <!-- Geometric A icon -->
  <path transform="translate(20, 18)" d="
    M 60 0
    Q 67 0 71 8
    L 118 140
    Q 122 150 115 157
    Q 108 164 98 164
    L 82 164
    Q 73 164 69 155
    L 62 138
    L 58 138
    L 51 155
    Q 47 164 38 164
    L 22 164
    Q 12 164 5 157
    Q -2 150 2 140
    L 49 8
    Q 53 0 60 0
    Z
    M 60 55
    L 48 95
    L 72 95
    Z
  " fill="url(#logoGradient)" fill-rule="evenodd"/>

  <!-- Wordmark: "Aether" -->
  <text x="175" y="122" 
        font-family="Inter, -apple-system, BlinkMacSystemFont, 'Segoe UI', Roboto, sans-serif" 
        font-size="66" 
        font-weight="600" 
        letter-spacing="-1"
        fill="#111827">Aether</text>
</svg>
